<?xml version="1.0" encoding="iso-8859-1"?>
<!-- Generator: Adobe Illustrator 19.0.0, SVG Export Plug-In . SVG Version: 6.00 Build 0)  -->
<svg version="1.1" id="Capa_1" xmlns="http://www.w3.org/2000/svg" xmlns:xlink="http://www.w3.org/1999/xlink" x="0px" y="0px"
	 viewBox="0 0 448 448" style="enable-background:new 0 0 448 448;" xml:space="preserve">
<path style="fill:#F3F3F3;" d="M352,96c-5.588,0-11.031,0.578-16.355,1.494C313.727,58.435,271.977,32,224,32
	s-89.726,26.434-111.645,65.494C107.031,96.579,101.588,96,96,96c-53.019,0-96,42.981-96,96s42.981,96,96,96h256
	c53.019,0,96-42.981,96-96S405.02,96,352,96z"/>
<path style="fill:#E1E1E1;" d="M352,96c-5.586,0-11.031,0.578-16.355,1.494c-0.098-0.177-0.23-0.332-0.332-0.509
	c10.57,18.62,16.687,40.1,16.687,63.041C352,230.704,294.703,288,224.027,288H352c53.019,0,96-42.981,96-96S405.02,96,352,96z"/>
<g>
	<path style="fill:#A4C4E7;" d="M80,339.018c-13.808,13.808-32,26.832-32,45.248c0,42.288,64,42.336,64,0
		C112,365.85,93.808,352.826,80,339.018z"/>
	<path style="fill:#A4C4E7;" d="M224,339.018c-13.808,13.808-32,26.832-32,45.248c0,42.288,64,42.336,64,0
		C256,365.85,237.808,352.826,224,339.018z"/>
	<path style="fill:#A4C4E7;" d="M368,339.018c-13.808,13.808-32,26.832-32,45.248c0,42.288,64,42.336,64,0
		C400,365.85,381.808,352.826,368,339.018z"/>
</g>
<g>
</g>
<g>
</g>
<g>
</g>
<g>
</g>
<g>
</g>
<g>
</g>
<g>
</g>
<g>
</g>
<g>
</g>
<g>
</g>
<g>
</g>
<g>
</g>
<g>
</g>
<g>
</g>
<g>
</g>
</svg>
