<?xml version="1.0" encoding="iso-8859-1"?>
<!-- Generator: Adobe Illustrator 19.0.0, SVG Export Plug-In . SVG Version: 6.00 Build 0)  -->
<svg version="1.1" id="Capa_1" xmlns="http://www.w3.org/2000/svg" xmlns:xlink="http://www.w3.org/1999/xlink" x="0px" y="0px"
	 viewBox="0 0 463.996 463.996" style="enable-background:new 0 0 463.996 463.996;" xml:space="preserve">
<path style="fill:#FCF1CE;" d="M425.436,147.456l29.021-17.413c1.544-0.926,1.544-3.165,0-4.091l-29.021-17.414l20.149-27.191
	c1.072-1.447,0.216-3.515-1.566-3.78l-33.475-4.981l8.209-32.832c0.437-1.747-1.146-3.33-2.893-2.893l-32.833,8.208l-4.981-33.474
	c-0.265-1.782-2.333-2.638-3.78-1.566l-27.193,20.148L329.661,1.158c-0.926-1.544-3.165-1.544-4.091,0l-17.411,29.02L280.966,10.03
	c-1.447-1.072-3.515-0.216-3.78,1.566l-4.982,33.474l-32.833-8.208c-1.747-0.437-3.33,1.146-2.893,2.893l8.209,32.832l-33.475,4.981
	c-1.782,0.265-2.638,2.333-1.566,3.78l20.149,27.191l-29.021,17.414c-1.544,0.926-1.544,3.165,0,4.091l29.021,17.413l-20.149,27.191
	c-1.072,1.447-0.216,3.515,1.566,3.78l33.475,4.981l-8.209,32.833c-0.437,1.747,1.146,3.33,2.893,2.893l32.833-8.209l4.981,33.474
	c0.265,1.782,2.333,2.638,3.78,1.566l27.191-20.148l17.413,29.021c0.926,1.544,3.165,1.544,4.091,0l17.413-29.021l27.191,20.148
	c1.447,1.072,3.515,0.216,3.78-1.566l4.981-33.474l32.833,8.209c1.747,0.437,3.33-1.146,2.893-2.893l-8.209-32.833l33.475-4.981
	c1.782-0.265,2.638-2.333,1.566-3.78L425.436,147.456z"/>
<circle style="fill:#F9DB7B;" cx="327.578" cy="127.998" r="80"/>
<path style="fill:#CCCBCB;" d="M215.616,287.996v127.935c0,8.912-7.297,15.968-16.207,15.968c-8.894,0-16.114-7.216-16.114-16.128
	c0-8.88-7.168-16.063-16.031-16.063c-8.898,0-16.062,7.183-16.062,16.063c0,26.656,21.566,48.225,48.207,48.225
	c26.656,0,48.207-21.408,48.207-48.065V287.996H215.616z"/>
<path style="fill:#010101;" d="M215.616,383.932c0,10.656,0,21.344,0,32c0,8.912-7.296,15.968-16.208,15.968
	c-8.896,0-16.112-7.216-16.112-16.128c0-8.88-7.168-16.064-16.032-16.064c-8.896,0-16.064,7.184-16.064,16.064
	c0,26.656,21.568,48.224,48.208,48.224c26.656,0,48.208-21.408,48.208-48.064c0-11.664,0-22.144,0-32H215.616z"/>
<polygon style="fill:#ABABAB;" points="247.616,351.996 215.616,319.996 215.616,287.996 247.616,287.996 "/>
<path style="fill:#C23D28;" d="M87.616,303.996c27.43,0,52.527,9.894,72,26.264c19.473-16.37,44.57-26.264,72-26.264
	s52.527,9.894,72,26.264c19.473-16.37,44.57-26.264,72-26.264c30.95,0,58.965,12.554,79.234,32.846
	c-7.824-116.612-104.641-208.846-223.234-208.846c-118.598,0-215.41,92.234-223.234,208.848
	C28.651,316.552,56.667,303.996,87.616,303.996z"/>
<path style="fill:#AD372B;" d="M231.616,127.996c40.863,0,74.508,85.842,79.344,196.603c18.266-12.958,40.554-20.603,64.656-20.603
	c30.95,0,58.965,12.554,79.234,32.846C447.026,220.231,350.209,127.996,231.616,127.996z"/>
<g>
</g>
<g>
</g>
<g>
</g>
<g>
</g>
<g>
</g>
<g>
</g>
<g>
</g>
<g>
</g>
<g>
</g>
<g>
</g>
<g>
</g>
<g>
</g>
<g>
</g>
<g>
</g>
<g>
</g>
</svg>
